<svg xmlns="http://www.w3.org/2000/svg" viewBox="0 0 3333 2861" shape-rendering="geometricPrecision" text-rendering="geometricPrecision" image-rendering="optimizeQuality" fill-rule="evenodd" clip-rule="evenodd"><path d="M135 2268c1012-2 2024-3 3036 0 60 0 110 49 110 110 0 164-69 484-439 484H464c-370 0-439-320-439-484 0-60 49-110 110-110zM2402 369c93 0 169 76 169 169s-76 169-169 169-169-76-169-169 76-169 169-169zM931 381c93 0 169 76 169 169s-76 169-169 169-169-76-169-169 76-169 169-169zm730-161c93 0 169 76 169 169s-76 169-169 169-169-76-169-169 76-169 169-169zm1367 991H314C141 1211 0 1070 0 897 0 450 890 8 1637 0c1470-15 2131 1211 1391 1211zm246 477c5 8 7 16 7 25 0 6 0 12-1 18 0 6 1 12 1 18 0 9-3 17-7 25-25 109-125 251-431 251H465c-307 0-406-142-431-251-5-8-7-16-7-25 0-6 0-12 1-18 0-6-1-12-1-18 0-9 3-17 7-25 25-109 125-251 431-251h1231l454 469 451-469h242c307 0 406 142 431 251z"/></svg>